<svg width="139" height="30" viewBox="0 0 139 30" fill="none" xmlns="http://www.w3.org/2000/svg">
<path d="M40.3 13.384H42.388V13.024C42.388 12.784 42.404 12.592 42.436 12.448C42.476 12.296 42.524 12.18 42.58 12.1C42.644 12.02 42.712 11.968 42.784 11.944C42.856 11.912 42.932 11.896 43.012 11.896C43.188 11.896 43.328 11.964 43.432 12.1C43.536 12.236 43.588 12.484 43.588 12.844C43.588 13.164 43.54 13.424 43.444 13.624C43.356 13.816 43.204 14.02 42.988 14.236L41.5 15.748C41.012 16.252 40.676 16.772 40.492 17.308C40.316 17.836 40.228 18.4 40.228 19H45.82V17.32H42.892C42.932 17.192 43.008 17.068 43.12 16.948C43.24 16.828 43.348 16.72 43.444 16.624L44.764 15.34C45.084 15.02 45.34 14.664 45.532 14.272C45.724 13.88 45.82 13.396 45.82 12.82C45.82 12.5 45.78 12.2 45.7 11.92C45.628 11.64 45.488 11.396 45.28 11.188C45.08 10.972 44.804 10.804 44.452 10.684C44.1 10.564 43.644 10.504 43.084 10.504C42.5 10.504 42.028 10.572 41.668 10.708C41.308 10.844 41.028 11.04 40.828 11.296C40.628 11.544 40.492 11.848 40.42 12.208C40.348 12.56 40.308 12.952 40.3 13.384ZM46.5344 10.672V12.496H49.9544C49.6024 12.976 49.2904 13.484 49.0184 14.02C48.7464 14.548 48.5104 15.092 48.3104 15.652C48.1184 16.204 47.9584 16.764 47.8304 17.332C47.7024 17.9 47.6104 18.456 47.5544 19H49.8584C49.8984 18.464 49.9784 17.904 50.0984 17.32C50.2264 16.728 50.3864 16.14 50.5784 15.556C50.7784 14.972 51.0024 14.408 51.2504 13.864C51.5064 13.312 51.7824 12.804 52.0784 12.34V10.672H46.5344ZM52.9608 10.672L52.7688 15.388H54.7848C54.7848 15.132 54.8408 14.948 54.9528 14.836C55.0648 14.724 55.2128 14.668 55.3968 14.668C55.6048 14.668 55.7608 14.764 55.8648 14.956C55.9768 15.14 56.0328 15.472 56.0328 15.952C56.0328 16.36 56.0208 16.684 55.9967 16.924C55.9728 17.164 55.9328 17.348 55.8768 17.476C55.8208 17.604 55.7528 17.688 55.6728 17.728C55.6008 17.76 55.5088 17.776 55.3968 17.776C55.2048 17.776 55.0528 17.704 54.9408 17.56C54.8368 17.416 54.7848 17.144 54.7848 16.744V16.456H52.6968V16.732C52.6968 17.5 52.9128 18.092 53.3448 18.508C53.7848 18.924 54.4968 19.132 55.4808 19.132C56.0088 19.132 56.4488 19.068 56.8008 18.94C57.1608 18.812 57.4488 18.612 57.6648 18.34C57.8808 18.068 58.0328 17.728 58.1208 17.32C58.2168 16.904 58.2648 16.416 58.2648 15.856C58.2648 14.936 58.0848 14.256 57.7248 13.816C57.3648 13.376 56.8368 13.156 56.1408 13.156C55.8208 13.156 55.5288 13.212 55.2648 13.324C55.0088 13.436 54.7768 13.588 54.5688 13.78L54.6648 12.352H57.8928V10.672H52.9608Z" fill="white"/>
<mask id="mask0_2_70" style="mask-type:alpha" maskUnits="userSpaceOnUse" x="4" y="7" width="22" height="16">
<path fill-rule="evenodd" clip-rule="evenodd" d="M15 7.5C10 7.5 5.73 10.61 4 15C5.73 19.39 10 22.5 15 22.5C20 22.5 24.27 19.39 26 15C24.27 10.61 20 7.5 15 7.5V7.5ZM15 20C12.24 20 10 17.76 10 15C10 12.24 12.24 10 15 10C17.76 10 20 12.24 20 15C20 17.76 17.76 20 15 20V20ZM15 12C13.34 12 12 13.34 12 15C12 16.66 13.34 18 15 18C16.66 18 18 16.66 18 15C18 13.34 16.66 12 15 12V12Z" fill="white"/>
</mask>
<g mask="url(#mask0_2_70)">
<rect x="2" y="2" width="26" height="26" fill="white"/>
</g>
<path d="M127.196 19H129.428V10.504H127.82C127.748 10.752 127.656 10.964 127.544 11.14C127.432 11.308 127.288 11.444 127.112 11.548C126.936 11.644 126.724 11.716 126.476 11.764C126.228 11.804 125.932 11.824 125.588 11.824V13.216H127.196V19ZM131.534 13.384H133.622V13.024C133.622 12.784 133.638 12.592 133.67 12.448C133.71 12.296 133.758 12.18 133.814 12.1C133.878 12.02 133.946 11.968 134.018 11.944C134.09 11.912 134.166 11.896 134.246 11.896C134.422 11.896 134.562 11.964 134.666 12.1C134.77 12.236 134.822 12.484 134.822 12.844C134.822 13.164 134.774 13.424 134.678 13.624C134.59 13.816 134.438 14.02 134.222 14.236L132.734 15.748C132.246 16.252 131.91 16.772 131.726 17.308C131.55 17.836 131.462 18.4 131.462 19H137.054V17.32H134.126C134.166 17.192 134.242 17.068 134.354 16.948C134.474 16.828 134.582 16.72 134.678 16.624L135.998 15.34C136.318 15.02 136.574 14.664 136.766 14.272C136.958 13.88 137.054 13.396 137.054 12.82C137.054 12.5 137.014 12.2 136.934 11.92C136.862 11.64 136.722 11.396 136.514 11.188C136.314 10.972 136.038 10.804 135.686 10.684C135.334 10.564 134.878 10.504 134.318 10.504C133.734 10.504 133.262 10.572 132.902 10.708C132.542 10.844 132.262 11.04 132.062 11.296C131.862 11.544 131.726 11.848 131.654 12.208C131.582 12.56 131.542 12.952 131.534 13.384Z" fill="white"/>
<mask id="mask1_2_70" style="mask-type:alpha" maskUnits="userSpaceOnUse" x="90" y="5" width="20" height="20">
<path fill-rule="evenodd" clip-rule="evenodd" d="M109 9H107V18H94V20C94 20.55 94.45 21 95 21H106L110 25V10C110 9.45 109.55 9 109 9V9ZM105 15V6C105 5.45 104.55 5 104 5H91C90.45 5 90 5.45 90 6V20L94 16H104C104.55 16 105 15.55 105 15V15Z" fill="white"/>
</mask>
<g mask="url(#mask1_2_70)">
<rect x="87" y="2" width="26" height="26" fill="white"/>
</g>
</svg>
